<svg xmlns="http://www.w3.org/2000/svg" width="512" height="512" viewBox="0 0 512 512">
  <defs>
    <linearGradient id="g" x1="0" x2="1" y1="0" y2="1">
      <stop offset="0%" stop-color="#2f9d85"/>
      <stop offset="100%" stop-color="#1f7867"/>
    </linearGradient>
  </defs>
  <rect width="512" height="512" rx="120" fill="#eef8f4"/>
  <circle cx="256" cy="256" r="182" fill="url(#g)" opacity="0.12"/>
  <path d="M180 176c0-24 20-44 44-44h64c24 0 44 20 44 44v28h28c24 0 44 20 44 44v32c0 24-20 44-44 44h-28v28c0 24-20 44-44 44h-64c-24 0-44-20-44-44v-28h-28c-24 0-44-20-44-44v-32c0-24 20-44 44-44h28v-28z" fill="url(#g)"/>
</svg>